<svg width="24" height="24" viewBox="0 0 24 24" fill="none" xmlns="http://www.w3.org/2000/svg">
<rect width="24" height="24" rx="12" fill="#FFA900"/>
<path d="M9.15527 17V7.04688H12.4092C13.4893 7.04688 14.3005 7.27018 14.8428 7.7168C15.3896 8.16341 15.6631 8.82422 15.6631 9.69922C15.6631 10.1641 15.5309 10.5765 15.2666 10.9365C15.0023 11.292 14.6423 11.5677 14.1865 11.7637C14.7243 11.9141 15.1481 12.2012 15.458 12.625C15.7725 13.0443 15.9297 13.5456 15.9297 14.1289C15.9297 15.0221 15.6403 15.724 15.0615 16.2344C14.4827 16.7448 13.6647 17 12.6074 17H9.15527ZM10.4678 12.3447V15.9268H12.6348C13.2454 15.9268 13.7262 15.7695 14.0771 15.4551C14.4326 15.1361 14.6104 14.6986 14.6104 14.1426C14.6104 12.944 13.9587 12.3447 12.6553 12.3447H10.4678ZM10.4678 11.292H12.4502C13.0244 11.292 13.4824 11.1484 13.8242 10.8613C14.1706 10.5742 14.3438 10.1846 14.3438 9.69238C14.3438 9.14551 14.1842 8.74902 13.8652 8.50293C13.5462 8.25228 13.0609 8.12695 12.4092 8.12695H10.4678V11.292Z" fill="white"/>
</svg>
