<svg width="24" height="24" viewBox="0 0 24 24" fill="none" xmlns="http://www.w3.org/2000/svg">
<rect width="24" height="24" rx="12" fill="#00AD5D"/>
<path d="M10.4678 13.1035V17H9.15527V7.04688H12.8262C13.9154 7.04688 14.7676 7.32487 15.3828 7.88086C16.0026 8.43685 16.3125 9.17285 16.3125 10.0889C16.3125 11.055 16.0094 11.8001 15.4033 12.3242C14.8018 12.8438 13.9382 13.1035 12.8125 13.1035H10.4678ZM10.4678 12.0303H12.8262C13.528 12.0303 14.0658 11.8662 14.4395 11.5381C14.8132 11.2054 15 10.7269 15 10.1025C15 9.51009 14.8132 9.03613 14.4395 8.68066C14.0658 8.3252 13.5531 8.14062 12.9014 8.12695H10.4678V12.0303Z" fill="white"/>
</svg>
