<svg width="24" height="24" viewBox="0 0 24 24" fill="none" xmlns="http://www.w3.org/2000/svg">
<path d="M0 12C0 5.37258 5.37258 0 12 0C18.6274 0 24 5.37258 24 12C24 18.6274 18.6274 24 12 24C5.37258 24 0 18.6274 0 12Z" fill="#FEB295"/>
<path d="M13.5625 12.4951H10.0283V11.4561H13.5625V12.4951ZM15.709 12.3447C15.709 13.3154 15.5449 14.1631 15.2168 14.8877C14.8932 15.6123 14.4307 16.1683 13.8291 16.5557C13.2275 16.943 12.5234 17.1367 11.7168 17.1367C10.9329 17.1367 10.238 16.9453 9.63184 16.5625C9.02572 16.1751 8.55404 15.626 8.2168 14.915C7.88411 14.1995 7.71322 13.3724 7.7041 12.4336V11.7158C7.7041 10.7588 7.87044 9.91341 8.20312 9.17969C8.53581 8.44596 9.00521 7.88542 9.61133 7.49805C10.222 7.10612 10.9193 6.91016 11.7031 6.91016C12.5007 6.91016 13.2002 7.10156 13.8018 7.48438C14.4033 7.86719 14.8682 8.41862 15.1963 9.13867C15.529 9.85417 15.6999 10.6836 15.709 11.627V12.3447ZM14.4033 11.7021C14.4033 10.5218 14.1663 9.61719 13.6924 8.98828C13.2184 8.35482 12.5553 8.03809 11.7031 8.03809C10.8737 8.03809 10.2197 8.35482 9.74121 8.98828C9.26725 9.61719 9.02344 10.4922 9.00977 11.6133V12.3447C9.00977 13.484 9.24674 14.3818 9.7207 15.0381C10.1992 15.6943 10.8646 16.0225 11.7168 16.0225C12.5645 16.0225 13.2207 15.7148 13.6855 15.0996C14.1504 14.4798 14.3896 13.5934 14.4033 12.4404V11.7021Z" fill="white"/>
</svg>
