<svg width="24" height="24" viewBox="0 0 24 24" fill="none" xmlns="http://www.w3.org/2000/svg">
<rect width="24" height="24" rx="12" fill="#5739DA"/>
<path d="M12.4004 13.4248C13.1113 13.32 13.665 13.0238 14.0615 12.5361C14.458 12.0439 14.6562 11.4105 14.6562 10.6357V7.04688H15.9756V10.6562C15.9756 11.3809 15.8298 12.0234 15.5381 12.584C15.251 13.14 14.8363 13.5866 14.2939 13.9238C13.7562 14.2565 13.125 14.457 12.4004 14.5254V17H11.0811V14.5254C10.0283 14.4206 9.18978 14.0286 8.56543 13.3496C7.94564 12.6706 7.62891 11.791 7.61523 10.7109V7.04688H8.92773V10.6631C8.93229 11.4059 9.12142 12.0234 9.49512 12.5156C9.87337 13.0033 10.402 13.304 11.0811 13.418V7.04688H12.4004V13.4248Z" fill="white"/>
</svg>
