<svg width="24" height="24" viewBox="0 0 24 24" fill="none" xmlns="http://www.w3.org/2000/svg">
<path d="M0 12C0 5.37258 5.37258 0 12 0V0C18.6274 0 24 5.37258 24 12V12C24 18.6274 18.6274 24 12 24V24C5.37258 24 0 18.6274 0 12V12Z" fill="#A1EB32"/>
<path d="M15.8115 12.3447C15.8115 13.32 15.6475 14.1722 15.3193 14.9014C14.9912 15.626 14.5264 16.1797 13.9248 16.5625C13.3232 16.9453 12.6214 17.1367 11.8193 17.1367C11.0355 17.1367 10.3405 16.9453 9.73438 16.5625C9.12826 16.1751 8.65658 15.626 8.31934 14.915C7.98665 14.1995 7.81576 13.3724 7.80664 12.4336V11.7158C7.80664 10.7588 7.97298 9.91341 8.30566 9.17969C8.63835 8.44596 9.10775 7.88542 9.71387 7.49805C10.3245 7.10612 11.0218 6.91016 11.8057 6.91016C12.6032 6.91016 13.305 7.10384 13.9111 7.49121C14.5218 7.87402 14.9912 8.43229 15.3193 9.16602C15.6475 9.89518 15.8115 10.7451 15.8115 11.7158V12.3447ZM14.5059 11.7021C14.5059 10.5218 14.2689 9.61719 13.7949 8.98828C13.321 8.35482 12.6579 8.03809 11.8057 8.03809C10.9762 8.03809 10.3223 8.35482 9.84375 8.98828C9.36979 9.61719 9.12598 10.4922 9.1123 11.6133V12.3447C9.1123 13.4886 9.35156 14.3887 9.83008 15.0449C10.3132 15.6966 10.9762 16.0225 11.8193 16.0225C12.667 16.0225 13.3232 15.7148 13.7881 15.0996C14.2529 14.4798 14.4922 13.5934 14.5059 12.4404V11.7021Z" fill="white"/>
</svg>
