<svg width="24" height="24" viewBox="0 0 24 24" fill="none" xmlns="http://www.w3.org/2000/svg">
<rect width="24" height="24" rx="12" fill="#3A20AB"/>
<path d="M12.7012 8.31152C13.4349 8.3252 14.0934 8.48926 14.6768 8.80371C15.2646 9.11816 15.7227 9.56022 16.0508 10.1299C16.3789 10.6995 16.543 11.3398 16.543 12.0508C16.543 12.7708 16.3789 13.4157 16.0508 13.9854C15.7272 14.555 15.2738 14.9971 14.6904 15.3115C14.1117 15.6214 13.4486 15.7855 12.7012 15.8037V17H11.375V15.8037C10.2311 15.7855 9.30371 15.4323 8.59277 14.7441C7.88184 14.0514 7.52637 13.1582 7.52637 12.0645C7.52637 11.39 7.66764 10.7816 7.9502 10.2393C8.2373 9.69694 8.64518 9.25944 9.17383 8.92676C9.80729 8.53027 10.541 8.3252 11.375 8.31152V7.04688H12.7012V8.31152ZM8.83203 12.0645C8.83203 12.903 9.05306 13.5501 9.49512 14.0059C9.93717 14.4616 10.5638 14.6986 11.375 14.7168V9.40527C10.5547 9.4235 9.92578 9.66276 9.48828 10.123C9.05078 10.5833 8.83203 11.2305 8.83203 12.0645ZM15.2373 12.0508C15.2373 11.2259 15.0163 10.5833 14.5742 10.123C14.1367 9.66276 13.5124 9.4235 12.7012 9.40527V14.7168C13.5215 14.6986 14.1481 14.4593 14.5811 13.999C15.0186 13.5342 15.2373 12.8848 15.2373 12.0508Z" fill="white"/>
</svg>
