<svg width="24" height="24" viewBox="0 0 24 24" fill="none" xmlns="http://www.w3.org/2000/svg">
<path d="M0 12C0 5.37258 5.37258 0 12 0C18.6274 0 24 5.37258 24 12C24 18.6274 18.6274 24 12 24C5.37258 24 0 18.6274 0 12Z" fill="#EC1889"/>
<path d="M9 17V7.04688H12.2539C13.334 7.04688 14.1452 7.27018 14.6875 7.7168C15.2344 8.16341 15.5078 8.82422 15.5078 9.69922C15.5078 10.1641 15.3757 10.5765 15.1113 10.9365C14.847 11.292 14.487 11.5677 14.0312 11.7637C14.569 11.9141 14.9928 12.2012 15.3027 12.625C15.6172 13.0443 15.7744 13.5456 15.7744 14.1289C15.7744 15.0221 15.485 15.724 14.9062 16.2344C14.3275 16.7448 13.5094 17 12.4521 17H9ZM10.3125 12.3447V15.9268H12.4795C13.0902 15.9268 13.571 15.7695 13.9219 15.4551C14.2773 15.1361 14.4551 14.6986 14.4551 14.1426C14.4551 12.944 13.8034 12.3447 12.5 12.3447H10.3125ZM10.3125 11.292H12.2949C12.8691 11.292 13.3271 11.1484 13.6689 10.8613C14.0153 10.5742 14.1885 10.1846 14.1885 9.69238C14.1885 9.14551 14.029 8.74902 13.71 8.50293C13.391 8.25228 12.9056 8.12695 12.2539 8.12695H10.3125V11.292Z" fill="white"/>
</svg>
