<svg width="24" height="24" viewBox="0 0 24 24" fill="none" xmlns="http://www.w3.org/2000/svg">
<path d="M0 12C0 5.37258 5.37258 0 12 0V0C18.6274 0 24 5.37258 24 12V12C24 18.6274 18.6274 24 12 24V24C5.37258 24 0 18.6274 0 12V12Z" fill="#A21579"/>
<path d="M12.4004 14.4248C13.1113 14.32 13.665 14.0238 14.0615 13.5361C14.458 13.0439 14.6562 12.4105 14.6562 11.6357V8.04688H15.9756V11.6562C15.9756 12.3809 15.8298 13.0234 15.5381 13.584C15.251 14.14 14.8363 14.5866 14.2939 14.9238C13.7562 15.2565 13.125 15.457 12.4004 15.5254V18H11.0811V15.5254C10.0283 15.4206 9.18978 15.0286 8.56543 14.3496C7.94564 13.6706 7.62891 12.791 7.61523 11.7109V8.04688H8.92773V11.6631C8.93229 12.4059 9.12142 13.0234 9.49512 13.5156C9.87337 14.0033 10.402 14.304 11.0811 14.418V8.04688H12.4004V14.4248Z" fill="white"/>
</svg>
