<svg width="24" height="24" viewBox="0 0 24 24" fill="none" xmlns="http://www.w3.org/2000/svg">
<rect width="24" height="24" rx="12" fill="#169897"/>
<path d="M9.46777 13.1035V17H8.15527V7.04688H11.8262C12.9154 7.04688 13.7676 7.32487 14.3828 7.88086C15.0026 8.43685 15.3125 9.17285 15.3125 10.0889C15.3125 11.055 15.0094 11.8001 14.4033 12.3242C13.8018 12.8438 12.9382 13.1035 11.8125 13.1035H9.46777ZM9.46777 12.0303H11.8262C12.528 12.0303 13.0658 11.8662 13.4395 11.5381C13.8132 11.2054 14 10.7269 14 10.1025C14 9.51009 13.8132 9.03613 13.4395 8.68066C13.0658 8.3252 12.5531 8.14062 11.9014 8.12695H9.46777V12.0303Z" fill="white"/>
</svg>
