<svg width="24" height="24" viewBox="0 0 24 24" fill="none" xmlns="http://www.w3.org/2000/svg">
<rect width="24" height="24" rx="12" fill="#7157E0"/>
<path d="M12.0381 15.8926C12.667 15.7695 13.1569 15.3844 13.5078 14.7373C13.8587 14.0902 14.041 13.2334 14.0547 12.167V11.251C14.0547 10.1982 13.8337 9.3916 13.3916 8.83105C12.9495 8.27051 12.3434 7.99023 11.5732 7.99023C10.8031 7.99023 10.1992 8.27507 9.76172 8.84473C9.32422 9.41439 9.10547 10.221 9.10547 11.2646V12.0371C9.10547 13.1309 9.2832 14.015 9.63867 14.6895C9.9987 15.3639 10.5091 15.765 11.1699 15.8926V17H7.80664V15.9268H9.31738C8.83431 15.4619 8.45605 14.8809 8.18262 14.1836C7.90918 13.4818 7.77246 12.7617 7.77246 12.0234V11.2646C7.77246 10.417 7.93197 9.66048 8.25098 8.99512C8.57454 8.32975 9.02572 7.81706 9.60449 7.45703C10.1833 7.09245 10.8395 6.91016 11.5732 6.91016C12.3024 6.91016 12.9541 7.08789 13.5283 7.44336C14.1071 7.79883 14.5583 8.30013 14.8818 8.94727C15.2054 9.5944 15.374 10.3281 15.3877 11.1484V12.0371C15.3877 12.7663 15.251 13.4818 14.9775 14.1836C14.7041 14.8809 14.3258 15.4619 13.8428 15.9268H15.3467V17H12.0381V15.8926Z" fill="white"/>
</svg>
